<?xml version="1.0" encoding="utf-8"?>
<!-- Generator: Adobe Illustrator 18.0.0, SVG Export Plug-In . SVG Version: 6.00 Build 0)  -->
<!DOCTYPE svg PUBLIC "-//W3C//DTD SVG 1.1//EN" "http://www.w3.org/Graphics/SVG/1.1/DTD/svg11.dtd">
<svg version="1.1" id="Layer_1" xmlns="http://www.w3.org/2000/svg" xmlns:xlink="http://www.w3.org/1999/xlink" x="0px" y="0px"
	 viewBox="0 0 252 109" enable-background="new 0 0 252 109" xml:space="preserve">
<g>
	<g>
		<path fill="#429559" d="M71.8,64.4c0.1,1.4,0.2,2.8-0.4,4.1c-0.6,1.3-1.6,2.3-2.7,3.2c-0.7,0.6-1.4,1.2-1.9,1.9
			c-0.5,0.7-0.8,1.5-1.1,2.5c-0.4,1.3-0.9,2.7-1.9,3.7c-1,1-2.4,1.5-3.7,1.9c-0.9,0.3-1.8,0.6-2.4,1c-0.7,0.5-1.3,1.1-1.9,1.9
			c-0.9,1-1.8,2.1-3.2,2.7c-0.7,0.3-1.5,0.4-2.5,0.4c-0.5,0-1.1,0-1.6-0.1c-0.5,0-1-0.1-1.5-0.1c-0.5,0-0.8,0-1.2,0.1
			c-0.8,0.2-1.6,0.6-2.5,1c-1.2,0.6-2.5,1.2-4,1.3c-1.5,0-2.7-0.6-3.9-1.2c-0.8-0.4-1.7-0.8-2.5-1c-0.3-0.1-0.7-0.1-1.2-0.1
			c-0.5,0-1,0-1.5,0.1c-0.5,0-1.1,0.1-1.6,0.1c-1,0-1.8-0.1-2.5-0.4c-1.3-0.6-2.3-1.6-3.2-2.7c-0.6-0.7-1.2-1.4-1.9-1.9
			c-0.7-0.5-1.6-0.8-2.5-1.1c-1.3-0.4-2.7-0.9-3.7-1.9c-1-1-1.5-2.4-1.9-3.7c-0.3-0.9-0.6-1.8-1-2.4c-0.5-0.7-1.1-1.3-1.9-1.9
			c-1-0.9-2.1-1.8-2.7-3.2c-0.6-1.4-0.5-2.8-0.4-4.1c0.1-0.9,0.1-1.8,0-2.7c-0.2-0.8-0.6-1.6-1-2.5c-0.6-1.2-1.2-2.5-1.2-4
			c0-1.5,0.6-2.7,1.2-3.9c0.4-0.8,0.8-1.7,1-2.5c0.2-0.8,0.1-1.7,0-2.7c-0.1-1.4-0.2-2.8,0.4-4.1c0.6-1.3,1.6-2.3,2.7-3.2
			c0.7-0.6,1.4-1.2,1.9-1.9c0.5-0.7,0.8-1.5,1.1-2.5c0.4-1.3,0.9-2.7,1.9-3.7c1-1,2.4-1.5,3.7-1.9c0.9-0.3,1.8-0.6,2.4-1
			c0.7-0.5,1.3-1.1,1.9-1.9c0.9-1,1.8-2.1,3.2-2.7c0.7-0.3,1.5-0.4,2.5-0.4c0.5,0,1.1,0,1.6,0.1c0.5,0,1,0.1,1.5,0.1
			c0.5,0,0.8,0,1.2-0.1c0.8-0.2,1.6-0.6,2.5-1c1.2-0.6,2.5-1.2,4-1.2c1.5,0,2.7,0.6,3.9,1.2c0.8,0.4,1.7,0.8,2.5,1
			c0.3,0.1,0.7,0.1,1.2,0.1c0.5,0,1,0,1.5-0.1c0.5,0,1.1-0.1,1.6-0.1c1,0,1.8,0.1,2.5,0.4c1.3,0.6,2.3,1.6,3.2,2.7
			c0.6,0.7,1.2,1.4,1.9,1.9c0.7,0.5,1.5,0.8,2.5,1.1c1.3,0.4,2.7,0.9,3.7,1.9c1,1,1.5,2.4,1.9,3.7c0.3,0.9,0.6,1.8,1,2.4
			c0.5,0.7,1.1,1.3,1.9,1.9c1,0.9,2.1,1.8,2.7,3.2c0.6,1.4,0.5,2.8,0.4,4.1c-0.1,1-0.1,1.8,0,2.7c0.2,0.8,0.6,1.6,1,2.5
			c0.6,1.2,1.2,2.5,1.2,4c0,1.5-0.6,2.7-1.2,3.9c-0.4,0.8-0.8,1.7-1,2.5C71.7,62.5,71.8,63.4,71.8,64.4"/>
		<path fill="none" stroke="#FFFFFF" stroke-miterlimit="10" d="M52.8,33.7h2.8c-0.4,2.3-1.1,9.9-2.1,15.6l-1.2,0.1
			c-2.1,13.3-5.1,31.4-5.2,31.4H31.9c-0.1,0-3.1-18.1-5.2-31.4l-1.3-0.1c-0.9-5.8-1.7-13.4-2.1-15.6h3"/>
		<path fill="#FFFFFF" d="M49.7,38.4c0.1,0.3,0.2,0.6,0.2,1c0,1.3-1,2.3-2.1,2.3c-1,0-1.8-0.7-2.1-1.7c0.5-0.2,0.8-0.8,0.8-1.4
			c0-0.8-0.6-1.5-1.4-1.5c-0.8,0-1.4,0.7-1.4,1.5c0,0.6,0.3,1.1,0.8,1.4c-0.3,1-1.1,1.7-2.1,1.7c-1.2,0-2.2-1.1-2.2-2.4
			c0-0.9,0.5-1.7,1.2-2.1l-2-1.7l-0.1-0.1l-0.1,0.1l-2,1.7c0.7,0.4,1.2,1.2,1.2,2.1c0,1.3-1,2.4-2.2,2.4c-1,0-1.8-0.7-2.1-1.7
			c0.5-0.2,0.8-0.8,0.8-1.4c0-0.8-0.6-1.5-1.4-1.5c-0.8,0-1.4,0.7-1.4,1.5c0,0.6,0.3,1.1,0.8,1.4c-0.2,1-1.1,1.7-2.1,1.7
			c-1.2,0-2.1-1-2.1-2.3c0-0.3,0.1-0.7,0.2-1l-2.6-0.9l2.6,5.9h10.2h0.1h10.2l2.6-5.9L49.7,38.4z"/>
		<line fill="none" stroke="#FFFFFF" stroke-miterlimit="10" x1="32.7" y1="53.1" x2="35" y2="75.8"/>
		<line fill="none" stroke="#FFFFFF" stroke-miterlimit="10" x1="46.5" y1="53.1" x2="44.1" y2="75.8"/>
		<line fill="none" stroke="#FFFFFF" stroke-miterlimit="10" x1="39.4" y1="53.1" x2="39.5" y2="75.8"/>
		<line fill="none" stroke="#FFFFFF" stroke-miterlimit="10" x1="30.8" y1="52.9" x2="34.4" y2="52.9"/>
		<line fill="none" stroke="#FFFFFF" stroke-miterlimit="10" x1="37.1" y1="52.9" x2="41.8" y2="52.9"/>
		<line fill="none" stroke="#FFFFFF" stroke-miterlimit="10" x1="44.9" y1="53" x2="48.3" y2="53"/>
		<rect x="29.1" y="44.6" fill="#FFFFFF" width="20.6" height="2.1"/>
	</g>
	<g>
		<path fill="#5C5D5F" d="M228,48.9c0.3-0.2,0.4-0.4,0.4-0.6c0.2-1.1,0.6-1.2,1.5-1.3c0.8-0.1,1.6-0.1,2.4,0c1,0.1,1.2,0.3,1.1,1.3
			c-0.1,1.4-0.3,2.8-0.5,4.2c-0.5,3.7-0.9,7.4-1.4,11.1c-0.2,1.6-0.8,3-1.7,4.3c-2.2,3.1-6.9,4.3-10.3,2.7c-1.1-0.5-2-1.2-2.5-2.3
			c-0.2-0.4-0.4-0.8-0.4-1.2c0-0.3-0.1-0.7,0.2-0.9c0.4-0.3,0.7,0,1,0.2c0.9,0.7,1.9,1.2,3.1,1.4c2.8,0.5,5-1,5.6-3.8
			c0.2-0.9,0.3-1.8,0.4-2.8c-0.5,0-0.7,0.4-0.9,0.6c-1.1,1-2.4,1.7-4,1.7c-2.3,0.1-4.1-1-5-3.2c-0.9-2.2-0.8-4.4-0.3-6.6
			c0.4-1.8,1.2-3.4,2.5-4.7c1.7-1.7,3.7-2.5,6.1-2C226.4,47.2,227.3,48,228,48.9 M227.5,54.5c0-1.1,0-1.8-0.3-2.5
			c-0.7-2-2.6-2.4-4-0.9c-1.5,1.5-2.2,5.3-1.3,7.2c0.6,1.3,2,1.8,3.3,1.1c0.5-0.3,0.9-0.8,1.3-1.3C227.2,56.9,227.5,55.6,227.5,54.5
			"/>
		<path fill="none" stroke="#FFFFFF" stroke-width="0.5" stroke-miterlimit="10" d="M228,48.9c0.3-0.2,0.4-0.4,0.4-0.6
			c0.2-1.1,0.6-1.2,1.5-1.3c0.8-0.1,1.6-0.1,2.4,0c1,0.1,1.2,0.3,1.1,1.3c-0.1,1.4-0.3,2.8-0.5,4.2c-0.5,3.7-0.9,7.4-1.4,11.1
			c-0.2,1.6-0.8,3-1.7,4.3c-2.2,3.1-6.9,4.3-10.3,2.7c-1.1-0.5-2-1.2-2.5-2.3c-0.2-0.4-0.4-0.8-0.4-1.2c0-0.3-0.1-0.7,0.2-0.9
			c0.4-0.3,0.7,0,1,0.2c0.9,0.7,1.9,1.2,3.1,1.4c2.8,0.5,5-1,5.6-3.8c0.2-0.9,0.3-1.8,0.4-2.8c-0.5,0-0.7,0.4-0.9,0.6
			c-1.1,1-2.4,1.7-4,1.7c-2.3,0.1-4.1-1-5-3.2c-0.9-2.2-0.8-4.4-0.3-6.6c0.4-1.8,1.2-3.4,2.5-4.7c1.7-1.7,3.7-2.5,6.1-2
			C226.4,47.2,227.3,48,228,48.9z M227.5,54.5c0-1.1,0-1.8-0.3-2.5c-0.7-2-2.6-2.4-4-0.9c-1.5,1.5-2.2,5.3-1.3,7.2
			c0.6,1.3,2,1.8,3.3,1.1c0.5-0.3,0.9-0.8,1.3-1.3C227.2,56.9,227.5,55.6,227.5,54.5z"/>
		<path fill="#5C5D5F" d="M170.8,45.7c0-0.4,0-0.7,0-1.1c-0.1-1.5-1.1-2-2.4-1.4c-1.3,0.7-2,1.8-2.2,3.2c-0.2,1-0.1,2,0.1,3
			c0.2,1-0.1,1.5-1.1,1.8c-2,0.8-4-0.3-4.4-2.4c-0.4-2,0.2-3.7,1.4-5.3c1.7-2.2,4.1-3.3,6.8-3.7c0.9-0.1,1.7-0.1,2.6-0.1
			c3.4,0.3,5.1,2.3,4.9,5.9c-0.1,2.2-0.4,4.3-0.7,6.4c-0.4,2.9-0.7,5.9-1.1,8.8c-0.2,2-0.3,2.1-2.3,2.3c-0.8,0.1-1.7,0.1-2.5-0.1
			c-0.8-0.2-0.9-0.3-0.9-1.1c0.2-1.7,0.4-3.4,0.6-5.1c0.4-3.3,0.9-6.7,1.3-10C170.8,46.5,170.8,46.1,170.8,45.7
			C170.9,45.7,170.8,45.7,170.8,45.7"/>
		<path fill="none" stroke="#FFFFFF" stroke-width="0.5" stroke-miterlimit="10" d="M170.8,45.7c0-0.4,0-0.7,0-1.1
			c-0.1-1.5-1.1-2-2.4-1.4c-1.3,0.7-2,1.8-2.2,3.2c-0.2,1-0.1,2,0.1,3c0.2,1-0.1,1.5-1.1,1.8c-2,0.8-4-0.3-4.4-2.4
			c-0.4-2,0.2-3.7,1.4-5.3c1.7-2.2,4.1-3.3,6.8-3.7c0.9-0.1,1.7-0.1,2.6-0.1c3.4,0.3,5.1,2.3,4.9,5.9c-0.1,2.2-0.4,4.3-0.7,6.4
			c-0.4,2.9-0.7,5.9-1.1,8.8c-0.2,2-0.3,2.1-2.3,2.3c-0.8,0.1-1.7,0.1-2.5-0.1c-0.8-0.2-0.9-0.3-0.9-1.1c0.2-1.7,0.4-3.4,0.6-5.1
			c0.4-3.3,0.9-6.7,1.3-10C170.8,46.5,170.8,46.1,170.8,45.7C170.9,45.7,170.8,45.7,170.8,45.7z"/>
		<path fill="#5C5D5F" d="M204.9,49.7c0.5-0.4,0.9-0.8,1.3-1.2c1.3-1.1,2.7-1.8,4.4-1.8c2.2,0,3.6,1.3,3.7,3.5
			c0.1,1.4-0.2,2.8-0.4,4.2c-0.1,1.3-0.3,2.6-0.4,3.9c-0.1,0.8,0.1,1.6,0.9,2.1c0.6,0.4,0.6,0.7,0.2,1.3c-0.8,1.3-2.7,2.1-4.2,1.8
			c-1.4-0.3-2.2-1.2-2.3-2.7c-0.1-1.4,0.2-2.8,0.4-4.2c0.1-1.4,0.3-2.9,0.4-4.3c0.1-0.7,0.1-1.5-0.7-1.9c-0.8-0.3-1.5,0.1-2,0.7
			c-1.1,1.2-1.7,2.6-2,4.2c-0.3,2-0.5,4-0.7,5.9c-0.2,1.7-0.4,1.9-2.1,2c-0.8,0-1.5,0-2.3-0.1c-0.9-0.2-1-0.3-0.9-1.2
			c0.2-1.8,0.5-3.6,0.7-5.5c0.2-1.5,0.4-2.9,0.6-4.4c0.1-0.9-0.1-1.7-0.9-2.3c-0.5-0.3-0.5-0.8-0.2-1.2c0.8-1.4,3-2.2,4.5-1.8
			c1,0.3,1.5,1,1.7,2C204.8,49,204.7,49.4,204.9,49.7"/>
		<path fill="none" stroke="#FFFFFF" stroke-width="0.5" stroke-miterlimit="10" d="M204.9,49.7c0.5-0.4,0.9-0.8,1.3-1.2
			c1.3-1.1,2.7-1.8,4.4-1.8c2.2,0,3.6,1.3,3.7,3.5c0.1,1.4-0.2,2.8-0.4,4.2c-0.1,1.3-0.3,2.6-0.4,3.9c-0.1,0.8,0.1,1.6,0.9,2.1
			c0.6,0.4,0.6,0.7,0.2,1.3c-0.8,1.3-2.7,2.1-4.2,1.8c-1.4-0.3-2.2-1.2-2.3-2.7c-0.1-1.4,0.2-2.8,0.4-4.2c0.1-1.4,0.3-2.9,0.4-4.3
			c0.1-0.7,0.1-1.5-0.7-1.9c-0.8-0.3-1.5,0.1-2,0.7c-1.1,1.2-1.7,2.6-2,4.2c-0.3,2-0.5,4-0.7,5.9c-0.2,1.7-0.4,1.9-2.1,2
			c-0.8,0-1.5,0-2.3-0.1c-0.9-0.2-1-0.3-0.9-1.2c0.2-1.8,0.5-3.6,0.7-5.5c0.2-1.5,0.4-2.9,0.6-4.4c0.1-0.9-0.1-1.7-0.9-2.3
			c-0.5-0.3-0.5-0.8-0.2-1.2c0.8-1.4,3-2.2,4.5-1.8c1,0.3,1.5,1,1.7,2C204.8,49,204.7,49.4,204.9,49.7z"/>
		<path fill="#5C5D5F" d="M183.8,63.6c-1.3-0.1-2.3-0.5-3.2-1.2c-0.9-0.7-1.5-1.6-2.1-2.6c-1.2-2.2-1.9-4.6-2.4-7.1
			c-0.1-0.7,0.1-1.3,0.6-1.9c2.6-2.8,5-5.7,7-9c0.3-0.5,0.7-0.7,1.2-0.9c1-0.2,2.1-0.2,3.1-0.1c1.1,0.2,1.3,0.5,0.6,1.4
			c-1.5,2-3.1,3.9-4.8,5.7c-0.7,0.8-1.4,1.5-2.2,2.2c-0.4,0.4-0.5,0.8-0.3,1.4c0.7,1.7,1.4,3.3,2.5,4.8c0.9,1.3,2,2.2,3.5,2.9
			c1,0.4,1.1,0.8,0.6,1.8C187,62.6,185.6,63.4,183.8,63.6"/>
		<path fill="none" stroke="#FFFFFF" stroke-width="0.5" stroke-miterlimit="10" d="M183.8,63.6c-1.3-0.1-2.3-0.5-3.2-1.2
			c-0.9-0.7-1.5-1.6-2.1-2.6c-1.2-2.2-1.9-4.6-2.4-7.1c-0.1-0.7,0.1-1.3,0.6-1.9c2.6-2.8,5-5.7,7-9c0.3-0.5,0.7-0.7,1.2-0.9
			c1-0.2,2.1-0.2,3.1-0.1c1.1,0.2,1.3,0.5,0.6,1.4c-1.5,2-3.1,3.9-4.8,5.7c-0.7,0.8-1.4,1.5-2.2,2.2c-0.4,0.4-0.5,0.8-0.3,1.4
			c0.7,1.7,1.4,3.3,2.5,4.8c0.9,1.3,2,2.2,3.5,2.9c1,0.4,1.1,0.8,0.6,1.8C187,62.6,185.6,63.4,183.8,63.6z"/>
		<path fill="#5C5D5F" d="M239.3,63.6c-1.1,0-2.5-0.3-3.8-1c-1.3-0.7-2.1-1.8-2.2-3.3c-0.2-2.2,1.9-3.9,3.9-3.3
			c1,0.3,1.2,0.7,0.9,1.7c0,0.1-0.1,0.2-0.1,0.3c-0.3,1.1,0,2,0.8,2.4c0.8,0.4,2.1,0.3,2.8-0.4c0.7-0.7,0.7-1.7,0.1-2.6
			c-0.4-0.6-0.9-1.1-1.4-1.6c-0.6-0.7-1.3-1.3-1.8-2.1c-0.5-0.7-0.8-1.4-1-2.2c-0.4-1.9,0.3-3.5,2-4.3c1.7-0.8,3.4-0.7,5,0.2
			c0.1,0.1,0.3,0.2,0.4,0.3c0.4,0.4,0.4,0.8-0.2,1c-0.1,0-0.2,0-0.3,0.1c-1.3,0.4-1.7,1.2-1.1,2.5c0.3,0.6,0.8,1.1,1.2,1.6
			c0.6,0.7,1.3,1.3,1.9,2c1.5,1.8,1.6,3.8,0.2,5.7c-0.9,1.2-2.1,2-3.6,2.5C242,63.4,240.9,63.6,239.3,63.6"/>
		<path fill="none" stroke="#FFFFFF" stroke-width="0.5" stroke-miterlimit="10" d="M239.3,63.6c-1.1,0-2.5-0.3-3.8-1
			c-1.3-0.7-2.1-1.8-2.2-3.3c-0.2-2.2,1.9-3.9,3.9-3.3c1,0.3,1.2,0.7,0.9,1.7c0,0.1-0.1,0.2-0.1,0.3c-0.3,1.1,0,2,0.8,2.4
			c0.8,0.4,2.1,0.3,2.8-0.4c0.7-0.7,0.7-1.7,0.1-2.6c-0.4-0.6-0.9-1.1-1.4-1.6c-0.6-0.7-1.3-1.3-1.8-2.1c-0.5-0.7-0.8-1.4-1-2.2
			c-0.4-1.9,0.3-3.5,2-4.3c1.7-0.8,3.4-0.7,5,0.2c0.1,0.1,0.3,0.2,0.4,0.3c0.4,0.4,0.4,0.8-0.2,1c-0.1,0-0.2,0-0.3,0.1
			c-1.3,0.4-1.7,1.2-1.1,2.5c0.3,0.6,0.8,1.1,1.2,1.6c0.6,0.7,1.3,1.3,1.9,2c1.5,1.8,1.6,3.8,0.2,5.7c-0.9,1.2-2.1,2-3.6,2.5
			C242,63.4,240.9,63.6,239.3,63.6z"/>
		<path fill="#5C5D5F" d="M189.3,59.9c0.1-1.2,0.3-2.7,0.5-4.3c0.3-2.4,0.6-4.8,0.9-7.2c0.1-1.1,0.3-1.3,1.4-1.4
			c0.8-0.1,1.6-0.1,2.4,0c1.2,0.1,1.4,0.3,1.3,1.5c-0.3,2.7-0.7,5.5-1,8.2c-0.1,0.5-0.1,1-0.1,1.6c-0.1,0.9,0.1,1.7,1,2.1
			c0.5,0.3,0.5,0.7,0.2,1.1c-0.8,1.6-3.3,2.5-5,1.7C189.8,62.7,189.3,61.8,189.3,59.9"/>
		<path fill="none" stroke="#FFFFFF" stroke-width="0.5" stroke-miterlimit="10" d="M189.3,59.9c0.1-1.2,0.3-2.7,0.5-4.3
			c0.3-2.4,0.6-4.8,0.9-7.2c0.1-1.1,0.3-1.3,1.4-1.4c0.8-0.1,1.6-0.1,2.4,0c1.2,0.1,1.4,0.3,1.3,1.5c-0.3,2.7-0.7,5.5-1,8.2
			c-0.1,0.5-0.1,1-0.1,1.6c-0.1,0.9,0.1,1.7,1,2.1c0.5,0.3,0.5,0.7,0.2,1.1c-0.8,1.6-3.3,2.5-5,1.7
			C189.8,62.7,189.3,61.8,189.3,59.9z"/>
		<path fill="#5C5D5F" d="M91.5,57.1c0.1-4.9,1.7-9.2,5.3-12.7c2.4-2.3,5.2-3.4,8.5-3.2c1.5,0.1,2.9,0.6,4.1,1.5
			c2.1,1.7,2.6,4.8,1.2,7.2c-0.9,1.4-2.6,2-4.1,1.4c-0.8-0.4-1.1-0.8-1-1.7c0.1-0.8,0.2-1.6,0.2-2.4c-0.2-2.3-1.9-3.2-3.9-2.1
			c-0.7,0.4-1.3,0.9-1.8,1.6c-1.4,1.9-2.2,4-2.5,6.3c-0.2,1.5-0.4,3.1,0,4.6c0.1,0.4,0.1,0.8,0.3,1.2c0.8,2.6,2.7,3.9,5.4,3.7
			c1.7-0.1,3.1-0.7,4.4-1.8c0.4-0.3,0.8-0.7,1.2-1c0.3-0.2,0.6-0.3,0.9-0.1c0.3,0.2,0.3,0.6,0.2,0.9c-0.1,0.3-0.1,0.5-0.3,0.8
			c-1.5,3.1-3.8,5.4-7.3,6c-4,0.8-8.6-0.7-10.2-6C91.6,59.9,91.5,58.5,91.5,57.1"/>
		<path fill="none" stroke="#FFFFFF" stroke-width="0.5" stroke-miterlimit="10" d="M91.5,57.1c0.1-4.9,1.7-9.2,5.3-12.7
			c2.4-2.3,5.2-3.4,8.5-3.2c1.5,0.1,2.9,0.6,4.1,1.5c2.1,1.7,2.6,4.8,1.2,7.2c-0.9,1.4-2.6,2-4.1,1.4c-0.8-0.4-1.1-0.8-1-1.7
			c0.1-0.8,0.2-1.6,0.2-2.4c-0.2-2.3-1.9-3.2-3.9-2.1c-0.7,0.4-1.3,0.9-1.8,1.6c-1.4,1.9-2.2,4-2.5,6.3c-0.2,1.5-0.4,3.1,0,4.6
			c0.1,0.4,0.1,0.8,0.3,1.2c0.8,2.6,2.7,3.9,5.4,3.7c1.7-0.1,3.1-0.7,4.4-1.8c0.4-0.3,0.8-0.7,1.2-1c0.3-0.2,0.6-0.3,0.9-0.1
			c0.3,0.2,0.3,0.6,0.2,0.9c-0.1,0.3-0.1,0.5-0.3,0.8c-1.5,3.1-3.8,5.4-7.3,6c-4,0.8-8.6-0.7-10.2-6C91.6,59.9,91.5,58.5,91.5,57.1z
			"/>
		<path fill="#5C5D5F" d="M117.8,50.5c0.5-0.3,0.8-0.7,1.1-1c1.3-1.2,2.8-2.1,4.6-2.1c2.2,0,3.6,1.4,3.7,3.5
			c0.1,1.5-0.2,2.9-0.4,4.4c-0.1,1.2-0.3,2.5-0.4,3.7c-0.1,0.8,0.2,1.5,0.9,2c0.6,0.4,0.6,0.7,0.3,1.3c-0.9,1.5-3.2,2.3-4.8,1.6
			c-1.1-0.5-1.6-1.4-1.7-2.5c-0.1-1,0.2-2,0.3-3c0.2-1.6,0.4-3.1,0.6-4.6c0.1-0.6,0.1-1.1,0-1.7c-0.3-0.9-0.9-1.2-1.8-0.8
			c-0.6,0.2-1.1,0.7-1.5,1.2c-0.9,1.1-1.3,2.5-1.5,3.9c-0.3,2-0.5,4-0.7,5.9c-0.2,1.3-0.3,1.5-1.6,1.6c-0.9,0.1-1.8,0.1-2.6-0.1
			c-0.9-0.2-1-0.3-0.9-1.2c0.2-1.7,0.4-3.3,0.6-5c0.6-5,1.2-10.1,1.8-15.1c0-0.4,0.1-0.7,0.1-1.1c0.2-1.5,0.3-1.5,1.8-1.7
			c0.8-0.1,1.6-0.1,2.4,0.1c0.9,0.2,1.1,0.3,1,1.3c-0.2,2-0.5,4-0.7,6.1C118.1,48.3,118,49.3,117.8,50.5"/>
		<path fill="none" stroke="#FFFFFF" stroke-width="0.5" stroke-miterlimit="10" d="M117.8,50.5c0.5-0.3,0.8-0.7,1.1-1
			c1.3-1.2,2.8-2.1,4.6-2.1c2.2,0,3.6,1.4,3.7,3.5c0.1,1.5-0.2,2.9-0.4,4.4c-0.1,1.2-0.3,2.5-0.4,3.7c-0.1,0.8,0.2,1.5,0.9,2
			c0.6,0.4,0.6,0.7,0.3,1.3c-0.9,1.5-3.2,2.3-4.8,1.6c-1.1-0.5-1.6-1.4-1.7-2.5c-0.1-1,0.2-2,0.3-3c0.2-1.6,0.4-3.1,0.6-4.6
			c0.1-0.6,0.1-1.1,0-1.7c-0.3-0.9-0.9-1.2-1.8-0.8c-0.6,0.2-1.1,0.7-1.5,1.2c-0.9,1.1-1.3,2.5-1.5,3.9c-0.3,2-0.5,4-0.7,5.9
			c-0.2,1.3-0.3,1.5-1.6,1.6c-0.9,0.1-1.8,0.1-2.6-0.1c-0.9-0.2-1-0.3-0.9-1.2c0.2-1.7,0.4-3.3,0.6-5c0.6-5,1.2-10.1,1.8-15.1
			c0-0.4,0.1-0.7,0.1-1.1c0.2-1.5,0.3-1.5,1.8-1.7c0.8-0.1,1.6-0.1,2.4,0.1c0.9,0.2,1.1,0.3,1,1.3c-0.2,2-0.5,4-0.7,6.1
			C118.1,48.3,118,49.3,117.8,50.5z"/>
		<path fill="#5C5D5F" d="M140.9,49.6c0.2-0.1,0.2-0.4,0.3-0.6c0.3-1.1,0.4-1.3,1.5-1.3c0.8-0.1,1.6-0.1,2.4,0
			c1.1,0.1,1.3,0.4,1.2,1.4c-0.3,2.5-0.7,5-1,7.5c-0.1,0.8-0.2,1.5-0.3,2.3c-0.1,0.8,0.1,1.6,0.9,2.1c0.7,0.5,0.7,0.8,0.2,1.5
			c-1,1.3-2.3,1.9-3.9,1.7c-1.1-0.1-1.9-0.7-2.4-1.8c-0.1-0.2-0.2-0.4-0.3-0.6c-0.5-0.1-0.6,0.3-0.9,0.6c-1.1,1-2.3,1.7-3.8,1.8
			c-2.2,0.2-3.9-0.7-5-2.7c-0.6-1.1-0.9-2.4-1-3.7c-0.1-2.9,0.6-5.5,2.4-7.7c1.1-1.3,2.4-2.2,4.1-2.5c1.9-0.3,3.6,0.1,4.9,1.7
			c0.1,0.1,0.2,0.2,0.3,0.3C140.8,49.6,140.9,49.6,140.9,49.6 M140.3,54.9c0-0.9,0-1.8-0.4-2.6c-0.6-1.3-1.9-1.7-3.2-1
			c-0.8,0.4-1.3,1.1-1.6,1.8c-0.8,1.7-0.9,3.5-0.6,5.3c0.2,0.9,0.6,1.7,1.6,2c1,0.3,1.8-0.1,2.5-0.8c0.3-0.3,0.5-0.6,0.7-0.9
			C140.1,57.5,140.4,56.3,140.3,54.9"/>
		<path fill="none" stroke="#FFFFFF" stroke-width="0.5" stroke-miterlimit="10" d="M140.9,49.6c0.2-0.1,0.2-0.4,0.3-0.6
			c0.3-1.1,0.4-1.3,1.5-1.3c0.8-0.1,1.6-0.1,2.4,0c1.1,0.1,1.3,0.4,1.2,1.4c-0.3,2.5-0.7,5-1,7.5c-0.1,0.8-0.2,1.5-0.3,2.3
			c-0.1,0.8,0.1,1.6,0.9,2.1c0.7,0.5,0.7,0.8,0.2,1.5c-1,1.3-2.3,1.9-3.9,1.7c-1.1-0.1-1.9-0.7-2.4-1.8c-0.1-0.2-0.2-0.4-0.3-0.6
			c-0.5-0.1-0.6,0.3-0.9,0.6c-1.1,1-2.3,1.7-3.8,1.8c-2.2,0.2-3.9-0.7-5-2.7c-0.6-1.1-0.9-2.4-1-3.7c-0.1-2.9,0.6-5.5,2.4-7.7
			c1.1-1.3,2.4-2.2,4.1-2.5c1.9-0.3,3.6,0.1,4.9,1.7c0.1,0.1,0.2,0.2,0.3,0.3C140.8,49.6,140.9,49.6,140.9,49.6z M140.3,54.9
			c0-0.9,0-1.8-0.4-2.6c-0.6-1.3-1.9-1.7-3.2-1c-0.8,0.4-1.3,1.1-1.6,1.8c-0.8,1.7-0.9,3.5-0.6,5.3c0.2,0.9,0.6,1.7,1.6,2
			c1,0.3,1.8-0.1,2.5-0.8c0.3-0.3,0.5-0.6,0.7-0.9C140.1,57.5,140.4,56.3,140.3,54.9z"/>
		<path fill="#5C5D5F" d="M152.2,47.6c0.6,0,1.1,0.1,1.7,0.1c0.6,0.1,0.8,0.4,0.8,1c-0.1,1-0.2,2.1-0.3,3.1
			c-0.3,2.2-0.6,4.3-0.8,6.5c-0.1,1.1-0.1,2.2,1,2.8c0.4,0.2,0.4,0.6,0.2,1c-0.8,1.7-3.7,2.6-5.3,1.6c-1.2-0.7-1.4-1.9-1.3-3.1
			c0.2-1.9,0.5-3.8,0.7-5.7c0.2-1.7,0.5-3.5,0.7-5.2c0.2-1.9,0.4-2.1,2.3-2.1C151.8,47.7,152,47.7,152.2,47.6
			C152.1,47.6,152.2,47.6,152.2,47.6"/>
		<path fill="none" stroke="#FFFFFF" stroke-width="0.5" stroke-miterlimit="10" d="M152.2,47.6c0.6,0,1.1,0.1,1.7,0.1
			c0.6,0.1,0.8,0.4,0.8,1c-0.1,1-0.2,2.1-0.3,3.1c-0.3,2.2-0.6,4.3-0.8,6.5c-0.1,1.1-0.1,2.2,1,2.8c0.4,0.2,0.4,0.6,0.2,1
			c-0.8,1.7-3.7,2.6-5.3,1.6c-1.2-0.7-1.4-1.9-1.3-3.1c0.2-1.9,0.5-3.8,0.7-5.7c0.2-1.7,0.5-3.5,0.7-5.2c0.2-1.9,0.4-2.1,2.3-2.1
			C151.8,47.7,152,47.7,152.2,47.6C152.1,47.6,152.2,47.6,152.2,47.6z"/>
		<path fill="#5C5D5F" d="M152.7,45.6c-0.6,0-1.1-0.1-1.6-0.4c-1.4-0.7-1.7-2.2-0.9-3.4c0.9-1.4,3.1-2,4.6-1.2
			c1.5,0.7,1.8,2.3,0.9,3.6C154.8,45.2,153.8,45.6,152.7,45.6"/>
		<path fill="none" stroke="#FFFFFF" stroke-width="0.5" stroke-miterlimit="10" d="M152.7,45.6c-0.6,0-1.1-0.1-1.6-0.4
			c-1.4-0.7-1.7-2.2-0.9-3.4c0.9-1.4,3.1-2,4.6-1.2c1.5,0.7,1.8,2.3,0.9,3.6C154.8,45.2,153.8,45.6,152.7,45.6z"/>
		<path fill="#5C5D5F" d="M194.4,39.5c0.4,0,0.9,0.1,1.3,0.2c1.7,0.7,2.1,2.4,1,3.8c-1,1.3-3,1.7-4.4,1c-1.3-0.7-1.7-2.1-1-3.3
			C192,40,193.1,39.5,194.4,39.5"/>
		<path fill="none" stroke="#FFFFFF" stroke-miterlimit="10" d="M194.4,39.5c0.4,0,0.9,0.1,1.3,0.2c1.7,0.7,2.1,2.4,1,3.8
			c-1,1.3-3,1.7-4.4,1c-1.3-0.7-1.7-2.1-1-3.3C192,40,193.1,39.5,194.4,39.5z"/>
	</g>
</g>
</svg>
